<?xml version="1.0" encoding="UTF-8"?>
<svg id="Layer_1" data-name="Layer 1" xmlns="http://www.w3.org/2000/svg" viewBox="0 0 426.89 149.11">
  <defs>
    <style>
      .cls-1 {
        fill: #f7901d;
      }

      .cls-2 {
        fill: #fe9257;
      }

      .cls-3 {
        fill: #2f2f2f;
      }

      .cls-4 {
        fill: #e61a24;
      }

      .cls-5 {
        fill: #f2286f;
      }

      .cls-6 {
        fill: #fd5d29;
      }

      .cls-7 {
        fill: #feac4b;
      }
    </style>
  </defs>
  <path class="cls-4" d="m30,29.92c1.11-.68,2.22-1.36,3.33-2.04.82-.39,1.64-.79,2.45-1.18.27-.05.52-.14.7-.37,1.19-.4,2.38-.8,3.58-1.2,1.05-.27,2.11-.55,3.16-.82,3.72-.58,7.45-.64,11.19-.24.57.33,1.23.21,1.84.38,1.49.39,2.99.79,4.48,1.18,2.04.94,4.14,1.72,6.08,2.87,1.19.84,2.39,1.69,3.58,2.53-3.06,2.52-5.69,5.4-7.79,8.78-2.46,3.94-4.09,8.2-4.71,12.77-.54,3.95-.47,7.92.38,11.86,1.57,7.32,5.16,13.43,10.71,18.41.45.41,1.13.63,1.22,1.36-.09.08-.17.16-.26.24-.06.04-.14.06-.19.11-.98.85-2.12,1.49-3.16,2.26-.82.61-2.02.82-2.94,1.44-1.27.47-2.53.94-3.8,1.41-.61.2-1.22.4-1.82.6l-1.55.3c-1.14.2-2.28.4-3.42.61-.66.02-1.33.05-1.99.07-1.05,0-2.1,0-3.16,0-1.66-.01-3.28-.35-4.91-.53-.1-.24-.29-.18-.48-.15-.74-.17-1.48-.33-2.21-.5-1.21-.43-2.42-.86-3.62-1.3-1.19-.55-2.38-1.09-3.57-1.64-1.05-.67-2.11-1.34-3.16-2.02-.5-.57-1.11-.98-1.77-1.34-.39-.62-1.06-.93-1.59-1.4-.66-.66-1.32-1.32-1.98-1.98-.35-.63-.83-1.16-1.39-1.61-.38-.64-.78-1.25-1.33-1.75-.59-1.11-1.26-2.17-2.03-3.16-.54-1.19-1.09-2.38-1.63-3.57-.35-.98-.7-1.96-1.05-2.94-.18-.74-.35-1.48-.53-2.22-.28-.41,0-.98-.37-1.37-.58-3.73-.66-7.47-.22-11.22.2-.9.39-1.8.59-2.7.03-.22.05-.44.08-.66.27-.83.55-1.66.82-2.49l1.41-3.58c.28-.53.56-1.06.84-1.59.32-.59.64-1.19.96-1.78.75-1.05,1.5-2.1,2.24-3.14.16-.22.32-.44.49-.67.86-.7,1.54-1.56,2.21-2.43.3-.24.59-.47.89-.71,1.05-.9,2.1-1.8,3.15-2.7.09-.07.17-.13.26-.2Z"/>
  <path class="cls-1" d="m71.53,30.13c.75-.52,1.5-1.05,2.24-1.57,2.26-1.2,4.55-2.3,6.97-3.15,1.05-.3,2.1-.6,3.14-.9,1.2-.17,2.39-.34,3.59-.51.98-.07,1.95-.15,2.93-.22,1.2.02,2.4.04,3.6.06,1.02.31,2.09.33,3.14.39,1.2.3,2.39.6,3.59.9,1.12.39,2.24.79,3.36,1.18.37.15.75.3,1.12.45.69.49,1.44.86,2.24,1.13,2.36,1.5,4.7,3.02,6.75,4.94.14.14.29.29.43.43.98,1.06,1.96,2.12,2.94,3.18.06.06.13.13.19.19.77,1.12,1.55,2.24,2.32,3.36.23.49.32,1.07.85,1.38.18.73.6,1.34.95,1.99.43,1.05.86,2.1,1.28,3.15.16.59.33,1.18.47,1.78.4,1.72.78,3.45,1.16,5.18-.12,1.14.03,2.26.17,3.38.15.89-.26,1.78,0,2.67-.37.29-.18.69-.2,1.04-.06,1.02-.17,2.04-.42,3.03-.09.67-.19,1.34-.28,2.01-.27.41-.46.85-.39,1.36l-1.18,3.36-1.57,3.37c-.21.08-.19.29-.24.45-.65.98-1.3,1.95-1.95,2.93-.39.52-.78,1.03-1.18,1.55-.52.6-1.05,1.21-1.58,1.81-.59.6-1.03,1.35-1.79,1.79-.52.38-.97.83-1.35,1.35-.73.46-1.48.88-2.03,1.57-1.12.67-2.25,1.35-3.37,2.02-1.12.54-2.23,1.09-3.35,1.63-1.86.45-3.52,1.53-5.47,1.71-.43.04-.9-.03-1.27.31-1.13.15-2.25.3-3.38.45-.45,0-.9,0-1.35,0-1.87-.13-3.75.11-5.61-.22-1.12-.17-2.25-.34-3.37-.51-.03-.13-.1-.2-.24-.16-.97-.24-1.94-.49-2.9-.73-1.05-.43-2.11-.86-3.16-1.29-1.59-.88-3.27-1.56-4.77-2.61-.76-.53-1.42-1.28-2.38-1.5-.09-.73-.77-.96-1.22-1.36-5.55-4.99-9.14-11.09-10.71-18.41-.85-3.95-.92-7.92-.38-11.86.62-4.57,2.25-8.83,4.71-12.77,2.11-3.38,4.74-6.26,7.79-8.78.38-.3.76-.6,1.14-.9Z"/>
  <path d="m27.46,102.34c0-1.36.94-2.1,2.05-2.1s1.85.75,1.85,2.08v4.41h1.74v-4.4c0-1.36.94-2.1,2.05-2.1s1.85.75,1.85,2.08v4.41h1.74v-4.99c0-1.86-1.33-3.16-3.22-3.16-.99,0-2.21.28-2.9,1.42-.55-.88-1.53-1.42-2.74-1.42-.81,0-1.8.24-2.43,1.18v-.97h-1.72v7.93h1.74v-4.4Z"/>
  <path d="m44.29,106.94c1.13,0,1.95-.46,2.49-1.16v.95h1.73v-7.93h-1.73v.96c-.55-.7-1.37-1.17-2.49-1.17-2.22,0-3.97,1.75-3.97,4.17s1.75,4.17,3.97,4.17Zm.21-6.72c1.43,0,2.39,1.09,2.39,2.54s-.96,2.54-2.39,2.54-2.39-1.15-2.39-2.54.9-2.54,2.39-2.54Z"/>
  <path d="m53.49,105.43c-1.29,0-2.05-.37-2.62-.81l-.8,1.3c1.16.86,2.58,1.02,3.4,1.02,2.29,0,3.61-1.07,3.61-2.59,0-1.36-1.03-2.1-2.76-2.34l-.82-.12c-.73-.11-1.31-.27-1.31-.82s.55-.94,1.5-.94,1.97.38,2.45.68l.75-1.35c-.82-.53-1.97-.84-3.21-.84-2.02,0-3.28.97-3.28,2.54,0,1.28.94,2.09,2.69,2.33l.83.11c.94.13,1.37.43,1.37.88,0,.6-.62.97-1.81.97Z"/>
  <path d="m63.87,104.77c-.47.3-1.06.54-1.6.54-.7,0-1.26-.41-1.26-1.48v-3.45h3.04v-1.57h-3.04v-2.4h-1.74v2.4h-1.58v1.57h1.58v3.49c0,2.11,1.05,3.08,2.85,3.08.99,0,1.8-.36,2.43-.79l-.69-1.38Z"/>
  <path d="m69.17,106.94c1.2,0,2.29-.29,3.26-1.12l-.86-1.23c-.65.52-1.5.84-2.29.84-1.13,0-2.13-.6-2.36-2.02h5.86c.02-.2.03-.42.03-.65,0-2.48-1.53-4.17-3.75-4.17-2.34,0-3.95,1.69-3.95,4.17s1.68,4.17,4.06,4.17Zm-.14-6.81c1.1,0,1.82.72,2.01,1.95h-4.12c.18-1.16.87-1.95,2.1-1.95Z"/>
  <path d="m76.21,102.37c0-1.35.79-2.13,1.89-2.13.42,0,.95.1,1.32.29l.41-1.71c-.4-.16-.8-.22-1.33-.22-.97,0-1.78.35-2.3,1.1v-.89h-1.71v7.93h1.73v-4.36Z"/>
  <path d="m87.35,105.67l-1.07-1.19c-.51.47-1.18.83-1.95.83-1.33,0-2.34-1.04-2.34-2.54s1.01-2.54,2.34-2.54c.76,0,1.35.3,1.9.82l1.11-1.18c-.7-.84-1.78-1.27-2.97-1.27-2.53,0-4.17,1.8-4.17,4.17s1.65,4.17,4.17,4.17c1.18,0,2.24-.43,2.97-1.27Z"/>
  <path d="m94.53,105.78v.95h1.73v-7.93h-1.73v.96c-.55-.7-1.37-1.17-2.49-1.17-2.22,0-3.97,1.75-3.97,4.17s1.75,4.17,3.97,4.17c1.13,0,1.95-.46,2.49-1.16Zm-2.29-.47c-1.49,0-2.39-1.15-2.39-2.54s.9-2.54,2.39-2.54,2.39,1.09,2.39,2.54-.96,2.54-2.39,2.54Z"/>
  <path d="m103.85,98.82c-.4-.16-.8-.22-1.33-.22-.97,0-1.78.35-2.3,1.1v-.89h-1.71v7.93h1.73v-4.36c0-1.35.79-2.13,1.89-2.13.42,0,.95.1,1.32.29l.41-1.71Z"/>
  <path d="m110.69,94.81v4.95c-.55-.7-1.37-1.17-2.49-1.17-2.22,0-3.97,1.75-3.97,4.17s1.75,4.17,3.97,4.17c1.13,0,1.95-.46,2.49-1.16v.95h1.73v-11.93h-1.73Zm-2.29,10.5c-1.49,0-2.39-1.15-2.39-2.54s.9-2.54,2.39-2.54,2.39,1.09,2.39,2.54-.96,2.54-2.39,2.54Z"/>
  <path d="m31.36,111.11c.52,0,1.08.19,1.48.42l.61-1.46c-.59-.35-1.28-.6-2.21-.6-1.86,0-2.66,1.27-2.66,2.86v1.34h-1.59v1.57h1.59v6.36h1.74v-6.36h2.72v-1.57h-2.72v-1.34c0-.79.36-1.23,1.04-1.23Z"/>
  <path d="m37.9,113.47c-2.45,0-4.27,1.8-4.27,4.17s1.81,4.17,4.27,4.17,4.27-1.8,4.27-4.17-1.82-4.17-4.27-4.17Zm0,6.72c-1.42,0-2.48-1.04-2.48-2.54s1.07-2.54,2.48-2.54,2.49,1.04,2.49,2.54-1.08,2.54-2.49,2.54Z"/>
  <path d="m49.37,118.09c0,1.53-.85,2.1-1.94,2.1s-1.94-.56-1.94-2.1v-4.41h-1.74v4.57c0,2.53,1.81,3.57,3.68,3.57s3.68-1.04,3.68-3.57v-4.57h-1.74v4.41Z"/>
  <path d="m57.42,113.47c-.81,0-1.8.24-2.43,1.18v-.97h-1.72v7.93h1.74v-4.4c0-1.36.94-2.1,2.05-2.1s1.85.75,1.85,2.08v4.41h1.74v-4.99c0-1.86-1.33-3.16-3.22-3.16Z"/>
  <path d="m68.68,114.64c-.55-.7-1.37-1.17-2.49-1.17-2.22,0-3.97,1.75-3.97,4.17s1.75,4.17,3.97,4.17c1.13,0,1.95-.46,2.49-1.16v.95h1.73v-11.93h-1.73v4.95Zm-2.29,5.55c-1.49,0-2.39-1.15-2.39-2.54s.9-2.54,2.39-2.54,2.39,1.09,2.39,2.54-.96,2.54-2.39,2.54Z"/>
  <path d="m78.54,114.64c-.55-.7-1.37-1.17-2.49-1.17-2.22,0-3.97,1.75-3.97,4.17s1.75,4.17,3.97,4.17c1.13,0,1.95-.46,2.49-1.16v.95h1.73v-7.93h-1.73v.96Zm-2.29,5.55c-1.49,0-2.39-1.15-2.39-2.54s.9-2.54,2.39-2.54,2.39,1.09,2.39,2.54-.96,2.54-2.39,2.54Z"/>
  <path d="m86.13,120.19c-.7,0-1.26-.41-1.26-1.48v-3.45h3.04v-1.57h-3.04v-2.4h-1.74v2.4h-1.58v1.57h1.58v3.49c0,2.11,1.05,3.08,2.85,3.08.99,0,1.8-.36,2.43-.79l-.69-1.38c-.47.3-1.06.54-1.6.54Z"/>
  <path d="m90.41,109.71c-.69,0-1.21.54-1.21,1.23s.52,1.21,1.21,1.21,1.23-.52,1.23-1.21-.54-1.23-1.23-1.23Z"/>
  <rect x="89.54" y="113.68" width="1.74" height="7.93"/>
  <path d="m97.21,113.47c-2.45,0-4.27,1.8-4.27,4.17s1.81,4.17,4.27,4.17,4.27-1.8,4.27-4.17-1.82-4.17-4.27-4.17Zm0,6.72c-1.42,0-2.48-1.04-2.48-2.54s1.07-2.54,2.48-2.54,2.49,1.04,2.49,2.54-1.08,2.54-2.49,2.54Z"/>
  <path d="m107.31,113.47c-.81,0-1.8.24-2.43,1.18v-.97h-1.72v7.93h1.74v-4.4c0-1.36.94-2.1,2.05-2.1s1.85.75,1.85,2.08v4.41h1.74v-4.99c0-1.86-1.33-3.16-3.22-3.16Z"/>
  <g>
    <path class="cls-3" d="m359.18,64.71c-1.05,0-1.95.64-1.95,1.88v1.2c0,1.27.82,1.89,1.94,1.89.96,0,1.53-.44,1.78-1.1.03-.11-.02-.16-.11-.2l-.52-.27c-.1-.04-.18-.05-.22.08-.1.32-.32.67-.9.67s-.96-.32-.96-1.08v-1.1c0-.81.39-1.13.94-1.13s.8.39.87.79c.03.12.1.11.18.1l.63-.17c.1-.03.12-.09.1-.18-.18-.88-.84-1.38-1.79-1.38Z"/>
    <path class="cls-3" d="m363.57,64.71c-1.31,0-2.05.67-2.05,1.86v1.31c0,1.14.74,1.81,2.04,1.81s2.04-.68,2.04-1.86v-1.26c0-1.18-.74-1.86-2.03-1.86Zm1.03,3.06c0,.78-.44,1.09-1.03,1.09s-1.03-.3-1.03-1.09v-1.13c0-.79.43-1.1,1.03-1.1s1.03.31,1.03,1.09v1.14Z"/>
    <path class="cls-3" d="m371.4,64.71c-.58,0-1.1.27-1.47.84-.15-.41-.49-.84-1.16-.84s-1.15.39-1.4.77v-.57c0-.08-.06-.11-.12-.11h-.74c-.08,0-.12.04-.12.11v4.57c0,.08.04.11.12.11h.76c.07,0,.12-.03.12-.11v-3.13c.11-.36.45-.8.98-.8.46,0,.65.29.65.85v3.08c0,.08.05.11.12.11h.78c.05,0,.11-.03.11-.11v-3.12c.13-.39.46-.81.99-.81.47,0,.64.36.64.86v3.07c0,.08.05.11.12.11h.77c.07,0,.11-.03.11-.11v-3.3c0-.85-.47-1.47-1.28-1.47Z"/>
    <path class="cls-3" d="m245.83,104.09c-8.08,5.88-18.66,3.35-21.88-8.08-2.72-9.67,5.35-21.94,18.1-18.1.2.06.41.07.61.14q3.42,1.28,3.42-2.45c0-3.25.05-6.51-.02-9.76-.03-1.35.41-1.75,1.79-1.83,4.98-.29,4.98-.35,4.98,4.64,0,11.44.04,22.89,0,34.33,0,1.26.93,3.38-1.55,3.25-1.95-.1-4.83,1.55-5.45-2.13Zm-14.93-12.33c0,6.22,2.45,9.47,7.19,9.5,4.65.03,7.98-3.72,7.98-9.04,0-5.62-2.89-9.14-8-9.22-4.65-.07-7.16,3.13-7.17,8.76Z"/>
    <path class="cls-3" d="m385.36,95.63c0,2.41-.03,4.83.01,7.24.02,1.21.49,2.98-.86,3.25-1.71.35-4.12,1.13-5.32-.51-1.48-2.01-2.21-.86-3.37.02-3.61,2.75-11.32,1.76-13.84-1.86-3.31-4.75-2.2-11.21,4.87-13.19,2.55-.71,5.25-.88,7.88-1.32,1.53-.25,3.19-.4,3.35-2.46.15-1.91-.21-3.28-2.53-3.93-4.15-1.16-6.35-.39-8.17,3.76-.46,1.06-1.14.73-1.77.71-.8-.03-1.45-.61-2.36-.62-2.51-.02-2.48-1.34-1.73-3.34,1.79-4.74,9.81-7.45,13.64-6.32,8.7,2.57,10.17,4.35,10.18,13.52,0,1.68,0,3.36,0,5.04h.01Zm-13.44,6.25c2.97.61,4.67-1.33,5.82-3.76,1.48-3.15.43-4.62-2.96-4.4-1.21.08-2.41.43-3.61.63-2.58.42-4.05,1.62-3.85,4.54.21,3.06,2.2,3.08,4.6,2.99Z"/>
    <path class="cls-3" d="m275.14,93.82c-3.05,0-6.1,0-9.16,0-1.15,0-1.91.29-1.21,1.66,1.28,2.5,2.51,5.26,5.61,5.69,3.27.45,6.68.47,8.74-2.96,1.56-2.6,3.78-.73,5.29-.35,1.84.46.48,2.31-.11,3.36-2.08,3.68-5.3,5.59-9.58,5.74-3.98.14-7.88.22-11.21-2.6-4.85-4.1-6.23-9.51-5.35-15.4.85-5.67,4.34-9.85,9.85-11.52,9.62-2.92,18.14,3.99,17.91,13.99-.05,2.02-.73,2.49-2.57,2.4-2.73-.13-5.47-.03-8.21-.03,0,.01,0,.02,0,.03Zm-2.87-4.81c1.88,0,3.76,0,5.64,0,1.31,0,1.55-.58,1.24-1.8-.81-3.24-3.59-4.47-6.15-4.67-2.38-.18-5.32.15-6.79,3.11-1.45,2.93-1.33,3.28,1.98,3.34,1.36.02,2.72,0,4.08.01Z"/>
    <path class="cls-3" d="m329.66,93.79c-2.95,0-5.89-.02-8.84,0-1.51.01-2.2.17-1.42,2.18,1.14,2.91,2.98,4.79,5.9,5.2,2.94.41,6.15.54,7.86-2.7,1.7-3.22,3.87-.8,5.78-.57.82.1.68,1.24.32,2.14-1.55,3.84-5.94,6.61-10.09,6.97-7.05.6-12.65-1.48-15.45-8.24-3.42-8.25-.79-18.72,8.7-21.01,11.14-2.69,18.18,3.5,17.81,14.48-.04,1.3-.59,1.57-1.73,1.55-2.95-.04-5.89-.02-8.84-.02h0Zm3.43-6.69c-.65-3.28-3.28-4.59-5.99-4.59-2.6,0-5.59.45-6.87,3.67-.29.73-1.12,1.33-.79,2.22.4,1.09,1.45.6,2.2.61,3.57.04,7.15-.01,10.72-.03.67.27,1.24.15,1.39-.59.1-.5.31-1.25-.66-1.29Z"/>
    <path class="cls-7" d="m200.63,67.35c-.03,5.96-.02,11.92-.12,17.87-.02.93.81,2.44-1.12,2.64-.24-.45-.38-1.01-.72-1.35-6.29-6.25-12.61-12.48-18.93-18.71-.03-.28-.05-.57-.08-.85,0-5.85-.03-11.7.02-17.56,0-.96-.51-2.13.67-2.84.06.2.12.41.18.61,3.57,3.67,7.02,7.47,10.75,10.97,3.1,2.9,5.58,6.46,9.24,8.77.08.14.12.28.1.44Z"/>
    <path class="cls-3" d="m354.13,95.07c0,4.52.14,9.04-.03,13.55-.28,7.14-3.73,10.31-10.55,9.74-2.56-.21-1.98-1.86-2.1-3.35-.13-1.53-.04-2.66,2.05-2.42,3.28.37,3.77-1.93,3.78-4.39.04-9.14.18-18.28-.07-27.42-.09-3.31,1.76-2.73,3.72-2.86,2.26-.15,3.41.23,3.26,2.97-.26,4.71-.07,9.45-.07,14.18Z"/>
    <path class="cls-3" d="m292.15,92.06c0-3.99.02-7.97-.01-11.96,0-1.25.08-2.62,1.74-2.12,1.53.46,4-1.7,4.57,1.32.36,1.88.8,1.6,1.89.57.65-.61,1.5-1.06,2.32-1.44,1.86-.86,4.39-1.21,5.54-.03,1.2,1.24.4,3.78.29,5.75-.05.91-.85.62-1.45.53-4.64-.71-7.78,1.7-7.92,6.24-.14,4.4-.07,8.81-.11,13.21-.03,3.29-2.75,2.28-4.49,2.71-2.09.52-2.41-.8-2.39-2.52.06-4.09.02-8.18.02-12.27Z"/>
    <path class="cls-2" d="m180.54,47.17c-.06-.2-.12-.41-.18-.61,6.7-.09,13.4-.18,20.09-.28,5.69.46,11.42-.47,17.1.5.81.14,1.59-.4,2.05-1.18.81.58,1.81.93,1.8,2.27-.06,6.12-.04,12.25-.09,18.38,0,.23-.35.45-.53.68-6.53-6.49-13.07-12.97-19.6-19.46-6.87-.88-13.75-.34-20.63-.29Z"/>
    <path class="cls-2" d="m179.67,66.96c.03.28.05.57.08.85-.21.06-.43.11-.64.17-5.66-.03-11.32-.07-16.97-.09-.59,0-1.34-.24-1.66.49-.25.57.27.95.62,1.31,5.95,5.96,11.58,12.23,18.04,17.67.03.2.06.39.08.59-5.03.02-10.06.06-15.1.06-1.49,0-2.96-.01-3.98,1.33-1.3-.61-1.28-1.77-1.28-2.95,0-5.57.08-11.14-.05-16.71-.05-2.01.73-2.51,2.57-2.51,6.1,0,12.19-.13,18.29-.21Z"/>
    <path class="cls-5" d="m179.1,67.98c.21-.06.43-.11.64-.17,6.31,6.23,12.63,12.46,18.93,18.71.35.34.49.9.72,1.35-6.38.06-12.76.13-19.14.19-.35-.04-.69-.08-1.04-.11-.02-.2-.04-.39-.08-.59-.01-6.46-.02-12.92-.03-19.38Z"/>
    <path class="cls-7" d="m179.21,87.95c.35.04.69.08,1.04.11-1.13,3.9-.24,7.89-.53,11.82-.19,2.67,1.11,6.89-.64,7.61-2.01.84-3.88-2.96-5.75-4.77-4.5-4.36-8.82-8.91-13.2-13.38,1.02-1.35,2.49-1.33,3.98-1.33,5.03,0,10.06-.04,15.1-.06Z"/>
    <path class="cls-5" d="m201.18,47.47c6.53,6.49,13.07,12.97,19.6,19.46-5.55.67-11.12.09-16.68.29-1.15.04-2.31.09-3.46.13.01-.16-.02-.31-.1-.44.01-4.67-.04-9.33.07-14,.04-1.81-.6-3.74.57-5.44Z"/>
    <path class="cls-7" d="m219.61,45.6c-.46.79-1.24,1.32-2.05,1.18-5.68-.96-11.41-.04-17.1-.5.03-5.36.04-10.71.11-16.07.01-1-.55-2.37.58-2.9,1.45-.67,1.34,1.16,2.05,1.75,3.85,3.19,6.95,7.15,10.97,10.26,2.01,1.56,3.76,4.05,5.44,6.27Z"/>
    <path class="cls-3" d="m350.28,71.62c-2.56,0-4.34-1.66-4.4-4.07-.06-2.55,1.75-4.16,4.69-4.16,2.63,0,4.23,1.65,4.16,4.29-.07,2.5-1.71,3.95-4.45,3.94Z"/>
    <path class="cls-3" d="m332.36,88.96c-.33-.86.35-1.31.74-1.88.97.04.76.79.65,1.29-.15.74-.73.86-1.39.59Z"/>
    <path class="cls-6" d="m201.18,47.47c-1.17,1.71-.53,3.63-.57,5.44-.11,4.67-.06,9.33-.07,14-3.66-2.31-6.14-5.87-9.24-8.77-3.73-3.5-7.18-7.3-10.75-10.97,6.88-.05,13.77-.59,20.63.3Z"/>
    <path class="cls-6" d="m179.1,67.98c0,6.46.02,12.92.03,19.38-6.46-5.44-12.1-11.71-18.04-17.67-.36-.36-.87-.74-.62-1.31.32-.73,1.08-.5,1.66-.49,5.66.02,11.32.06,16.97.09Z"/>
  </g>
</svg>